<svg xmlns:xlink="http://www.w3.org/1999/xlink" class="BasicIcon BasicIcon--ai SiteNavItem__basicIcon" width="16" height="16" viewBox="0 0 16 16" fill="none" xmlns="http://www.w3.org/2000/svg">
    <path fill="#88ADD2" fill-rule="evenodd" d="M5 1.813a1 1 0 0 0-1 1v1a1 1 0 0 0-1 1H2a1 1 0 0 0 0 2h1v1H2a1 1 0 0 0 0 2h1v1H2a1 1 0 0 0 0 2h1a1 1 0 0 0 1 1v1a1 1 0 1 0 2 0v-1h1v1a1 1 0 1 0 2 0v-1h1v1a1 1 0 0 0 2 0v-1a1 1 0 0 0 1-1h1a1 1 0 0 0 0-2h-1v-1h1a1 1 0 1 0 0-2h-1v-1h1a1 1 0 1 0 0-2h-1a1 1 0 0 0-1-1v-1a1 1 0 0 0-2 0v1H9v-1a1 1 0 0 0-2 0v1H6v-1a1 1 0 0 0-1-1Zm6 4H5v6h6v-6Z" clip-rule="evenodd"></path>
  </svg>