<svg xmlns:xlink="http://www.w3.org/1999/xlink" class="BasicIcon BasicIcon--certificate SiteNavItem__basicIcon" width="16" height="16" viewBox="0 0 16 16" fill="none" xmlns="http://www.w3.org/2000/svg">
    <path d="M9.8279 10.7878C9.06146 10.1392 7.93854 10.1392 7.1721 10.7878C6.79426 11.1076 6.22873 11.0605 5.90896 10.6827C5.78846 10.5403 5.71538 10.3639 5.69991 10.178C5.61664 9.17739 4.82261 8.38336 3.82198 8.30009C3.32869 8.25903 2.96208 7.82586 3.00314 7.33257C3.01861 7.1467 3.09168 6.97028 3.21218 6.8279C3.86085 6.06146 3.86085 4.93854 3.21218 4.1721C2.8924 3.79426 2.93947 3.22873 3.31731 2.90896C3.45968 2.78846 3.6361 2.71538 3.82198 2.69991C4.82261 2.61664 5.61664 1.82261 5.69991 0.821979C5.74097 0.328691 6.17414 -0.0379164 6.66743 0.00313763C6.8533 0.0186074 7.02972 0.0916833 7.1721 0.21218C7.93854 0.860849 9.06146 0.860849 9.8279 0.21218C10.2057 -0.107597 10.7713 -0.060531 11.091 0.317306C11.2115 0.45968 11.2846 0.636101 11.3001 0.821979C11.3834 1.82261 12.1774 2.61664 13.178 2.69991C13.6713 2.74097 14.0379 3.17414 13.9969 3.66743C13.9814 3.8533 13.9083 4.02972 13.7878 4.1721C13.1392 4.93854 13.1392 6.06146 13.7878 6.8279C14.1076 7.20574 14.0605 7.77127 13.6827 8.09104C13.5403 8.21154 13.3639 8.28462 13.178 8.30009C12.1774 8.38336 11.3834 9.17739 11.3001 10.178C11.259 10.6713 10.8259 11.0379 10.3326 10.9969C10.1467 10.9814 9.97028 10.9083 9.8279 10.7878Z" fill="#88ADD2"></path>
    <path d="M4.5 16C4.5 16 6.5418 15.2343 7.70784 14H9.29637C10.4631 15.2317 12.5 15.9955 12.5 15.9955L12.1965 12.3757C11.1309 13.2108 9.57597 13.2149 8.5 12.31V12.3145L8.49697 12.317L8.48445 12.3L8.441 12.3628C7.36779 13.219 5.84973 13.2001 4.80355 12.3802L4.5 16Z" fill="#88ADD2"></path>
  </svg>