<svg xmlns:xlink="http://www.w3.org/1999/xlink" class="BasicIcon BasicIcon--creatorEconomy SiteNavItem__basicIcon" width="16" height="16" viewBox="0 0 16 16" fill="none" xmlns="http://www.w3.org/2000/svg">
    <path d="M8.0004 0H7.9996C5.2388 0 3 2.2388 3 4.9998C3 6.3808 3.5594 7.6306 4.4648 8.5356C5.1668 9.2384 5.612 10.0974 5.8084 11H10.1922C10.3882 10.0972 10.8334 9.2382 11.5352 8.5356C12.4406 7.6306 13 6.3808 13 4.9998C13 2.2388 10.7614 0 8.0004 0ZM6.5862 6.4142L5.5254 7.4754C4.1586 6.1084 4.1586 3.8922 5.5254 2.525L6.5862 3.5858C5.8048 4.367 5.805 5.6332 6.5862 6.4142ZM10.0707 12.5H5.92871V13.929C5.92851 15.0726 6.85531 16 7.99971 16C9.14311 16 10.0705 15.0726 10.0705 13.929L10.0707 12.5Z" fill="#88ADD2"></path>
  </svg>