<svg xmlns:xlink="http://www.w3.org/1999/xlink" class="BasicIcon BasicIcon--crypto SiteNavItem__basicIcon" width="16" height="16" viewBox="0 0 16 16" fill="none" xmlns="http://www.w3.org/2000/svg">
    <path fill-rule="evenodd" clip-rule="evenodd" d="M13.915 3.845H3.30625C3.05151 3.845 2.845 4.05151 2.845 4.30625V5.22875C2.845 5.48349 3.05151 5.69 3.30625 5.69H14.8375C15.347 5.69 15.76 6.10302 15.76 6.6125V13.07C15.76 14.089 14.934 14.915 13.915 14.915H2.845C1.82604 14.915 1 14.089 1 13.07V3.845C1 2.82604 1.82604 2 2.845 2H13.915C14.4245 2 14.8375 2.41302 14.8375 2.9225C14.8375 3.43198 14.4245 3.845 13.915 3.845ZM12.07 9.38C11.5605 9.38 11.1475 9.79302 11.1475 10.3025C11.1475 10.812 11.5605 11.225 12.07 11.225H12.9925C13.502 11.225 13.915 10.812 13.915 10.3025C13.915 9.79302 13.502 9.38 12.9925 9.38H12.07Z" fill="#88ADD2"></path>
  </svg>