<svg xmlns:xlink="http://www.w3.org/1999/xlink" class="BasicIcon BasicIcon--cart SiteNavItem__basicIcon" width="16" height="16" viewBox="0 0 16 16" fill="none" xmlns="http://www.w3.org/2000/svg">
    <path fill-rule="evenodd" clip-rule="evenodd" d="M5.43 6.00003L5.1 7.22003C4.99757 7.60087 4.97115 7.99815 5.02226 8.38919C5.07336 8.78023 5.20099 9.15738 5.39785 9.4991C5.79542 10.1892 6.45087 10.6932 7.22 10.9C7.98913 11.1069 8.80893 10.9998 9.49907 10.6022C10.1892 10.2046 10.6931 9.54916 10.9 8.78003L11.64 6.00003H15C15.2652 6.00003 15.5196 6.10539 15.7071 6.29293C15.8946 6.48046 16 6.73482 16 7.00003C16 7.26525 15.8946 7.5196 15.7071 7.70714C15.5196 7.89468 15.2652 8.00003 15 8.00003L14.1 15.11C14.0728 15.3558 13.9556 15.5827 13.7709 15.747C13.5862 15.9114 13.3472 16.0015 13.1 16H2.9C2.65279 16.0015 2.41378 15.9114 2.22911 15.747C2.04443 15.5827 1.92719 15.3558 1.9 15.11L1 8.00003C0.734784 8.00003 0.48043 7.89468 0.292893 7.70714C0.105357 7.5196 0 7.26525 0 7.00003C0 6.73482 0.105357 6.48046 0.292893 6.29293C0.48043 6.10539 0.734784 6.00003 1 6.00003H5.43ZM9.61 0.0200324L10.58 0.280032C10.7047 0.315197 10.8109 0.397406 10.8762 0.509333C10.9415 0.62126 10.9608 0.754163 10.93 0.880032L9.57 6.00003L8.97 8.26003C8.90104 8.51729 8.73272 8.73662 8.50205 8.86977C8.27138 9.00292 7.99726 9.03899 7.74 8.97003C7.48274 8.90108 7.26341 8.73275 7.13026 8.50208C6.99711 8.27141 6.96104 7.99729 7.03 7.74003L9.03 0.290032C9.07988 0.184336 9.16521 0.0994519 9.27116 0.0501273C9.37712 0.000802785 9.49701 -0.00984548 9.61 0.0200324Z" fill="#88ADD2"></path>
  </svg>