<svg xmlns:xlink="http://www.w3.org/1999/xlink" class="BasicIcon BasicIcon--office SiteNavItem__basicIcon" width="16" height="16" viewBox="0 0 16 16" fill="none" xmlns="http://www.w3.org/2000/svg">
    <path fill-rule="evenodd" clip-rule="evenodd" d="M9.84619 14.1016H9.8461V1.00061C9.8461 0.33623 9.21019 -0.143434 8.57138 0.0390845L1.95599 1.92919C1.52669 2.05185 1.23071 2.44424 1.23071 2.89072V14.1016H0.923077C0.413276 14.1016 0 14.5148 0 15.0246C0 15.5344 0.413276 15.9477 0.923077 15.9477H15.0769C15.5867 15.9477 16 15.5344 16 15.0246C16 14.5148 15.5867 14.1016 15.0769 14.1016H14.7693V6.26716C14.7693 5.80829 14.457 5.40831 14.0118 5.29702L9.84619 4.25562V14.1016ZM2.99994 5.50007C2.99994 5.22393 3.2238 5.00007 3.49994 5.00007H4.49994C4.77608 5.00007 4.99994 5.22393 4.99994 5.50007V6.50007C4.99994 6.77622 4.77608 7.00007 4.49994 7.00007H3.49994C3.2238 7.00007 2.99994 6.77622 2.99994 6.50007V5.50007ZM2.99994 8.50007C2.99994 8.22393 3.2238 8.00007 3.49994 8.00007H4.49994C4.77608 8.00007 4.99994 8.22393 4.99994 8.50007V9.50007C4.99994 9.77622 4.77608 10.0001 4.49994 10.0001H3.49994C3.2238 10.0001 2.99994 9.77622 2.99994 9.50007V8.50007ZM3.49994 11.0001C3.2238 11.0001 2.99994 11.2239 2.99994 11.5001V12.5001C2.99994 12.7762 3.2238 13.0001 3.49994 13.0001H4.49994C4.77608 13.0001 4.99994 12.7762 4.99994 12.5001V11.5001C4.99994 11.2239 4.77608 11.0001 4.49994 11.0001H3.49994ZM5.99994 5.50007C5.99994 5.22393 6.2238 5.00007 6.49994 5.00007H7.49994C7.77608 5.00007 7.99994 5.22393 7.99994 5.50007V6.50007C7.99994 6.77622 7.77608 7.00007 7.49994 7.00007H6.49994C6.2238 7.00007 5.99994 6.77622 5.99994 6.50007V5.50007ZM6.49994 8.00007C6.2238 8.00007 5.99994 8.22393 5.99994 8.50007V9.50007C5.99994 9.77622 6.2238 10.0001 6.49994 10.0001H7.49994C7.77608 10.0001 7.99994 9.77622 7.99994 9.50007V8.50007C7.99994 8.22393 7.77608 8.00007 7.49994 8.00007H6.49994ZM5.99994 11.5001C5.99994 11.2239 6.2238 11.0001 6.49994 11.0001H7.49994C7.77608 11.0001 7.99994 11.2239 7.99994 11.5001V12.5001C7.99994 12.7762 7.77608 13.0001 7.49994 13.0001H6.49994C6.2238 13.0001 5.99994 12.7762 5.99994 12.5001V11.5001ZM11.5 8C11.2239 8 11 8.22386 11 8.5V9.5C11 9.77614 11.2239 10 11.5 10H12.5C12.7762 10 13 9.77614 13 9.5V8.5C13 8.22386 12.7762 8 12.5 8H11.5ZM11.5 11C11.2239 11 11 11.2239 11 11.5V12.5C11 12.7761 11.2239 13 11.5 13H12.5C12.7762 13 13 12.7761 13 12.5V11.5C13 11.2239 12.7762 11 12.5 11H11.5Z" fill="#88ADD2"></path>
  </svg>