<svg xmlns:xlink="http://www.w3.org/1999/xlink" class="BasicIcon BasicIcon--barGraph SiteNavItem__basicIcon" width="16" height="16" viewBox="0 0 16 16" fill="none" xmlns="http://www.w3.org/2000/svg">
    <path d="M0 16V5.75C0 5.55109 0.0790176 5.36032 0.21967 5.21967C0.360322 5.07902 0.551088 5 0.75 5H2.75C2.94891 5 3.13968 5.07902 3.28033 5.21967C3.42098 5.36032 3.5 5.55109 3.5 5.75V16H0ZM6.25 16V0.75C6.25 0.551088 6.32902 0.360322 6.46967 0.21967C6.61032 0.0790176 6.80109 0 7 0L9 0C9.19891 0 9.38968 0.0790176 9.53033 0.21967C9.67098 0.360322 9.75 0.551088 9.75 0.75V16H6.25ZM12.5 16V8.75C12.5 8.55109 12.579 8.36032 12.7197 8.21967C12.8603 8.07902 13.0511 8 13.25 8H15.25C15.4489 8 15.6397 8.07902 15.7803 8.21967C15.921 8.36032 16 8.55109 16 8.75V16H12.5Z" fill="#88ADD2"></path>
  </svg>