<svg xmlns:xlink="http://www.w3.org/1999/xlink" class="BasicIcon BasicIcon--globalBusinesses SiteNavItem__basicIcon" width="16" height="16" viewBox="0 0 16 16" fill="none" xmlns="http://www.w3.org/2000/svg">
  <path fill-rule="evenodd" clip-rule="evenodd" d="M4.37 16H9C9.55228 16 10 15.5523 10 15C10 14.717 9.88242 14.4614 9.69344 14.2795C11.1565 13.6157 12.4332 12.5077 13.2984 11.0156C15.5075 7.20541 14.1965 2.33337 10.3702 0.133575C9.89187 -0.141401 9.28028 0.0217819 9.00414 0.498053C8.72799 0.974323 8.89187 1.58333 9.37016 1.8583C12.2399 3.50815 13.2232 7.16218 11.5663 10.0198C9.90946 12.8774 6.23992 13.8565 3.37016 12.2067C2.89187 11.9317 2.28028 12.0949 2.00414 12.5712C1.72799 13.0474 1.89187 13.6564 2.37016 13.9314C2.74373 14.1462 3.12746 14.3275 3.51786 14.4764C3.42409 14.6287 3.37 14.808 3.37 15C3.37 15.5523 3.81771 16 4.37 16ZM1.62 7C1.62 9.62335 3.74664 11.75 6.37 11.75C8.99335 11.75 11.12 9.62335 11.12 7C11.12 4.37665 8.99335 2.25 6.37 2.25C3.74664 2.25 1.62 4.37665 1.62 7Z" fill="#88ADD2"></path>
  </svg>