<svg xmlns:xlink="http://www.w3.org/1999/xlink" class="BasicIcon BasicIcon--marketplace SiteNavItem__basicIcon" width="16" height="16" viewBox="0 0 16 16" fill="none" xmlns="http://www.w3.org/2000/svg">
    <path fill-rule="evenodd" clip-rule="evenodd" d="M13.57 7.65001C12.86 7.65001 12.17 7.38001 11.63 6.91001C11.11 7.37001 10.43 7.65001 9.7 7.65001C8.97 7.65001 8.28 7.38001 7.76 6.91001C7.22 7.37001 6.53 7.65001 5.82 7.65001C5.08 7.65001 4.39 7.38001 3.87 6.91001C3.48206 7.24216 3.01622 7.4705 2.51605 7.57368C2.01588 7.67686 1.49771 7.65152 1.01 7.50001C0.83743 7.45391 0.672402 7.38318 0.52 7.29001V14.46C0.52 14.78 0.8 15.06 1.12 15.06H8.67V9.80001C8.67 9.69001 8.77 9.60001 8.87 9.60001H12.01C12.12 9.60001 12.21 9.70001 12.21 9.80001V15.06H14.36C14.69 15.06 14.96 14.78 14.96 14.46V7.29001C14.82 7.39001 14.66 7.45001 14.47 7.49001C14.2 7.59001 13.89 7.65001 13.57 7.65001ZM6.83 11.7C6.83 11.82 6.73 11.9 6.63 11.9H3.51C3.45696 11.9 3.40609 11.8789 3.36858 11.8414C3.33107 11.8039 3.31 11.7531 3.31 11.7V9.80001C3.31 9.68001 3.41 9.60001 3.51 9.60001H6.61C6.73 9.60001 6.81 9.70001 6.81 9.80001V11.7H6.83ZM15.14 3.38001L13.04 0.420014C12.84 0.160014 12.54 1.44387e-05 12.22 1.44387e-05H3.32C3.15966 -0.000847123 3.00146 0.0368602 2.85875 0.109957C2.71604 0.183053 2.593 0.289395 2.5 0.420014L0.38 3.38001C0.13 3.72001 0 4.15001 0 4.58001C0 5.44001 0.5 6.28001 1.32 6.52001C2.24 6.80001 3.1 6.42001 3.56 5.73001C3.71 5.51001 4.03 5.51001 4.2 5.73001C4.54 6.26001 5.15 6.62001 5.82 6.62001C6.14177 6.62013 6.45829 6.53853 6.7399 6.38286C7.0215 6.22719 7.25896 6.00255 7.43 5.73001C7.58 5.51001 7.91 5.51001 8.07 5.73001C8.41 6.26001 9.02 6.62001 9.69 6.62001C10.0118 6.62013 10.3283 6.53853 10.6099 6.38286C10.8915 6.22719 11.129 6.00255 11.3 5.73001C11.45 5.51001 11.78 5.51001 11.94 5.73001C12.38 6.42001 13.24 6.80001 14.18 6.52001C15 6.27001 15.5 5.42001 15.5 4.57001C15.52 4.15001 15.39 3.74001 15.14 3.38001Z" fill="#88ADD2"></path>
  </svg>