<svg xmlns:xlink="http://www.w3.org/1999/xlink" class="BasicIcon BasicIcon--article SiteNavItem__basicIcon" width="16" height="16" viewBox="0 0 16 16" fill="none" xmlns="http://www.w3.org/2000/svg">
    <path d="M13.6296 1C14.9387 1 16 2.06125 16 3.37037V14.037C16 14.6916 15.4694 15.2222 14.8148 15.2222H2.64165C0.888889 15.2222 0 14.3666 0 12.9194C0 9.6247 0 7.31191 0 5.98108C0 3.98483 1.77778 3.37037 3.35802 3.37037C3.35802 2.06125 4.41928 1 5.7284 1H13.6296ZM6.22222 3.66667C5.7313 3.66667 5.33333 4.06464 5.33333 4.55556C5.33333 5.04648 5.7313 5.44444 6.22222 5.44444H10.6667C11.1576 5.44444 11.5556 5.04648 11.5556 4.55556C11.5556 4.06464 11.1576 3.66667 10.6667 3.66667H6.22222ZM6.22222 7.22222C5.7313 7.22222 5.33333 7.62019 5.33333 8.11111C5.33333 8.60203 5.7313 9 6.22222 9H13.3333C13.8243 9 14.2222 8.60203 14.2222 8.11111C14.2222 7.62019 13.8243 7.22222 13.3333 7.22222H6.22222ZM6.22222 10.7778C5.7313 10.7778 5.33333 11.1757 5.33333 11.6667C5.33333 12.1576 5.7313 12.5556 6.22222 12.5556H13.3333C13.8243 12.5556 14.2222 12.1576 14.2222 11.6667C14.2222 11.1757 13.8243 10.7778 13.3333 10.7778H6.22222ZM3.11111 5.44444C2.37473 5.44444 1.77778 6.0414 1.77778 6.77778V12.5556C1.77778 13.0465 2.17575 13.4444 2.66667 13.4444H3.55556V5.44444H3.11111Z" fill="#88ADD2"></path>
  </svg>