<svg xmlns:xlink="http://www.w3.org/1999/xlink" class="BasicIcon BasicIcon--partners SiteNavItem__basicIcon" width="16" height="16" viewBox="0 0 16 16" fill="none" xmlns="http://www.w3.org/2000/svg">
    <path d="M15.8 1.96C15.92 2.13 15.99 2.33 16 2.54V11.06C15.98 11.48 15.74 11.86 15.36 12.03L8.46 15.23C8.16 15.36 7.83 15.36 7.54 15.23L0.64 12.03C0.453404 11.9442 0.294559 11.8078 0.18145 11.6364C0.0683411 11.465 0.00548564 11.2653 0 11.06L0 2.54C0 2.34 0.07 2.13 0.2 1.96L8 5.56L15.8 1.96ZM4.37 0C4.75 0.82 6.23 1.43 8 1.43C9.77 1.43 11.24 0.82 11.63 0H11.73V1.23C11.73 2.24 10.06 3.07 8 3.07C5.93 3.07 4.26 2.24 4.26 1.23V0H4.36H4.37Z" fill="#88ADD2"></path>
  </svg>