<svg xmlns:xlink="http://www.w3.org/1999/xlink" class="BasicIcon BasicIcon--team SiteNavItem__basicIcon" width="16" height="16" viewBox="0 0 16 16" fill="none" xmlns="http://www.w3.org/2000/svg">
    <circle cx="4.79997" cy="5.79997" r="2.66667" fill="#88ADD2"></circle>
    <circle cx="11.2" cy="3.66667" r="2.66667" fill="#88ADD2"></circle>
    <path d="M0 13.5334C0 11.3243 1.79086 9.53345 4 9.53345H5.60002C7.80915 9.53345 9.60002 11.3243 9.60002 13.5334V13.8668C9.60002 14.4191 9.1523 14.8668 8.60002 14.8668H1C0.447717 14.8668 0 14.4191 0 13.8668V13.5334Z" fill="#88ADD2"></path>
    <path d="M8.73921 8.65956C8.40389 8.55492 8.27708 8.11391 8.58349 7.94215C9.1996 7.5968 9.91015 7.3999 10.6667 7.3999H11.7334C14.0898 7.3999 16 9.31016 16 11.6666C16 12.2557 15.5225 12.7332 14.9334 12.7332H11.7334C11.7334 10.82 10.4741 9.20093 8.73921 8.65956Z" fill="#88ADD2"></path>
  </svg>