<svg xmlns:xlink="http://www.w3.org/1999/xlink" class="BasicIcon BasicIcon--retail SiteNavItem__basicIcon" width="16" height="16" viewBox="0 0 16 16" fill="none" xmlns="http://www.w3.org/2000/svg">
    <path d="M1.70313 0.4453L0 3C0 4.65685 1.34315 6 3 6C4.04349 6 4.96254 5.46725 5.5 4.6589C6.03746 5.46725 6.95651 6 8 6C9.04349 6 9.96254 5.46725 10.5 4.6589C11.0375 5.46725 11.9565 6 13 6C14.6569 6 16 4.65685 16 3L14.2969 0.4453C14.1114 0.167101 13.7992 0 13.4648 0H2.53518C2.20083 0 1.8886 0.167101 1.70313 0.4453Z" fill="#88ADD2"></path>
    <path d="M3 12V7.5C2.28158 7.5 1.60248 7.33165 1 7.03224V15C1 15.5523 1.44772 16 2 16H14C14.5523 16 15 15.5523 15 15V7.03224C14.3975 7.33165 13.7184 7.5 13 7.5V12H3Z" fill="#88ADD2"></path>
  </svg>