<svg xmlns:xlink="http://www.w3.org/1999/xlink" class="BasicIcon BasicIcon--saas SiteNavItem__basicIcon" width="16" height="16" viewBox="0 0 16 16" fill="none" xmlns="http://www.w3.org/2000/svg">
    <path fill-rule="evenodd" clip-rule="evenodd" d="M2.88 1H14.13C15.15 1 16 1.84 16 2.88V14.13C16 15.16 15.16 16 14.12 16H2.88C2.63311 16 2.38865 15.9514 2.16056 15.8569C1.93246 15.7624 1.72521 15.6239 1.55064 15.4494C1.37607 15.2748 1.23759 15.0675 1.14311 14.8394C1.04863 14.6114 1 14.3669 1 14.12L1 2.88C1 1.83 1.84 1 2.88 1ZM11.85 5.22H12.48C12.6657 5.22 12.8437 5.14625 12.975 5.01497C13.1062 4.8837 13.18 4.70565 13.18 4.52C13.18 4.33435 13.1062 4.1563 12.975 4.02503C12.8437 3.89375 12.6657 3.82 12.48 3.82H9.2C9.01435 3.82 8.8363 3.89375 8.70503 4.02503C8.57375 4.1563 8.5 4.33435 8.5 4.52V6.86C8.5 7.04565 8.57375 7.2237 8.70503 7.35497C8.8363 7.48625 9.01435 7.56 9.2 7.56C9.38565 7.56 9.5637 7.48625 9.69497 7.35497C9.82625 7.2237 9.9 7.04565 9.9 6.86V5.53C10.4204 5.77577 10.8669 6.15413 11.1948 6.62707C11.5227 7.10001 11.7203 7.65089 11.768 8.2244C11.8156 8.79791 11.7115 9.37385 11.4661 9.8944C11.2207 10.4149 10.8427 10.8618 10.37 11.19V12.79C11.0648 12.4861 11.6756 12.0183 12.15 11.4267C12.6244 10.835 12.9482 10.1371 13.0937 9.39283C13.2392 8.64856 13.2021 7.8801 12.9854 7.15334C12.7688 6.42657 12.3792 5.76317 11.85 5.22ZM5.15 11.86H4.52C4.33435 11.86 4.1563 11.9338 4.02503 12.065C3.89375 12.1963 3.82 12.3743 3.82 12.56C3.82 12.7457 3.89375 12.9237 4.02503 13.055C4.1563 13.1862 4.33435 13.26 4.52 13.26H7.8C7.89193 13.26 7.98295 13.2419 8.06788 13.2067C8.15281 13.1715 8.22997 13.12 8.29497 13.055C8.35998 12.99 8.41154 12.9128 8.44672 12.8279C8.48189 12.743 8.5 12.6519 8.5 12.56V10.22C8.5 10.0343 8.42625 9.8563 8.29497 9.72503C8.1637 9.59375 7.98565 9.52 7.8 9.52C7.61435 9.52 7.4363 9.59375 7.30503 9.72503C7.17375 9.8563 7.1 10.0343 7.1 10.22V11.54C6.58187 11.2935 6.13748 10.9153 5.81121 10.4433C5.48494 9.97129 5.28819 9.42195 5.24063 8.85012C5.19306 8.2783 5.29633 7.70401 5.54013 7.18458C5.78393 6.66515 6.15973 6.21877 6.63 5.89V4.29C5.93518 4.59386 5.3244 5.06167 4.85002 5.65335C4.37565 6.24502 4.05183 6.9429 3.90632 7.68717C3.7608 8.43144 3.79795 9.1999 4.01455 9.92666C4.23116 10.6534 4.62078 11.3168 5.15 11.86Z" fill="#88ADD2"></path>
  </svg>