<svg xmlns:xlink="http://www.w3.org/1999/xlink" class="BasicIcon BasicIcon--appsMarketplace SiteNavItem__basicIcon" width="16" height="16" viewBox="0 0 16 16" fill="none" xmlns="http://www.w3.org/2000/svg">
    <path fill-rule="evenodd" clip-rule="evenodd" d="M0 13.3333C0 14.8061 1.19391 16 2.66667 16L13.3333 16C14.8061 16 16 14.8061 16 13.3333L16 2.66667C16 1.19391 14.8061 0 13.3333 0H2.66667C1.19391 0 3.21315e-06 1.19391 3.02002e-06 2.66667L0 13.3333ZM8.66667 12C8.66667 12.3682 8.36819 12.6667 8 12.6667C7.63181 12.6667 7.33333 12.3682 7.33333 12L7.33333 8.66667H4C3.63181 8.66667 3.33333 8.36819 3.33333 8C3.33333 7.63181 3.63181 7.33333 4 7.33333H7.33333V4C7.33333 3.63181 7.63181 3.33333 8 3.33333C8.36819 3.33333 8.66667 3.63181 8.66667 4V7.33333H12C12.3682 7.33333 12.6667 7.63181 12.6667 8C12.6667 8.36819 12.3682 8.66667 12 8.66667H8.66667V12Z" fill="#88ADD2"></path>
  </svg>